<svg version="1.1" id="Layer_1" xmlns="http://www.w3.org/2000/svg" xmlns:xlink="http://www.w3.org/1999/xlink" x="0px" y="0px"
	 width="100%" viewBox="0 0 500 500" enable-background="new 0 0 500 500" xml:space="preserve">
<path fill="#FFF5F2" opacity="1.000000" stroke="none" 
	d="
M264.000000,501.000000 
	C176.000015,501.000000 88.500038,501.000000 1.000047,501.000000 
	C1.000031,334.333405 1.000031,167.666794 1.000016,1.000136 
	C167.666565,1.000091 334.333130,1.000091 500.999756,1.000046 
	C500.999847,167.666519 500.999847,334.333038 500.999939,500.999786 
	C422.166656,501.000000 343.333344,501.000000 264.000000,501.000000 
M214.971237,182.967865 
	C214.765228,183.591202 214.559235,184.214539 214.353241,184.837875 
	C215.264816,184.593506 216.176376,184.349136 217.841736,183.965103 
	C219.122787,183.060745 220.403854,182.156387 221.684906,181.252029 
	C221.409134,180.806747 221.133362,180.361450 220.857605,179.916168 
	C219.571655,180.609589 218.285706,181.303024 216.528732,181.997223 
	C216.182037,182.057861 215.956635,182.256271 214.971237,182.967865 
M181.105759,209.451706 
	C185.110092,206.177429 189.114441,202.903152 193.118774,199.628876 
	C192.636856,199.052460 192.154922,198.476059 191.673004,197.899658 
	C187.460678,201.369675 183.248367,204.839691 178.461380,208.600433 
	C178.086609,209.368622 177.711838,210.136795 177.337067,210.904953 
	C178.397766,210.540222 179.458481,210.175476 181.105759,209.451706 
M205.157272,272.072479 
	C202.606049,274.380707 199.705658,276.405396 197.562149,279.044739 
	C186.435913,292.744843 192.604294,314.512146 209.213165,319.770172 
	C209.993851,319.191010 211.486420,318.547028 211.440552,318.043060 
	C211.124725,314.573212 210.211502,311.149017 210.004669,307.679504 
	C209.351547,296.723877 208.903687,285.755707 208.422882,274.790314 
	C208.287537,271.703613 208.360764,271.700409 205.157272,272.072479 
M158.468277,257.848633 
	C160.270676,257.751068 162.133575,257.914703 163.865646,257.513550 
	C175.016678,254.930817 180.760269,247.332825 182.873062,236.541214 
	C183.634079,232.654022 184.759567,229.127365 189.816803,227.906036 
	C195.451874,229.487289 200.944504,231.997986 207.097290,230.508835 
	C204.987610,229.234879 202.721664,228.687759 200.457397,228.133713 
	C185.140915,224.385925 171.213013,218.441635 163.221725,203.801590 
	C163.830902,200.902588 165.068085,197.971817 164.923370,195.110947 
	C164.583328,188.388916 163.582840,181.700287 163.081085,174.350433 
	C168.390396,167.257401 173.518372,159.984619 180.420776,155.702469 
	C184.595688,161.034531 187.658417,166.638000 192.255081,170.333511 
	C196.711349,173.916183 202.743820,175.538269 207.766449,177.873718 
	C194.970795,182.657898 181.544678,187.408829 170.962173,197.475510 
	C172.539185,197.627670 173.786652,197.124863 174.856049,196.369827 
	C189.079208,186.327744 205.280792,181.056290 221.924271,176.886124 
	C222.646317,176.705215 223.631744,177.575409 223.599991,178.375107 
	C224.914047,182.298279 226.543045,178.645752 228.983612,178.406494 
	C228.238861,179.666702 227.755875,181.227173 226.708481,182.140213 
	C217.185944,190.441376 207.540314,198.601257 198.008377,206.891815 
	C196.980148,207.786118 196.444595,209.246887 195.680496,210.444901 
	C196.069168,210.751175 196.457840,211.057449 196.846512,211.363724 
	C198.125137,210.172012 199.360840,208.930023 200.689301,207.796738 
	C210.048676,199.812485 219.316391,191.712708 228.904419,184.012207 
	C230.574402,182.670959 233.803345,182.253998 235.999298,182.762253 
	C245.025543,184.851440 252.221375,181.508972 255.847565,172.916504 
	C256.383148,171.647354 256.776215,170.318054 257.292816,168.853241 
	C266.857239,177.581696 271.602356,177.873734 282.811768,171.068161 
	C283.829803,170.450073 285.662048,170.569229 286.889465,170.996872 
	C295.514709,174.001923 304.041595,177.291748 312.684631,180.242279 
	C316.078064,181.400726 316.236786,183.291107 315.505829,186.333618 
	C309.356171,211.929642 286.617004,230.802094 260.337311,232.002136 
	C259.212006,232.053528 258.100586,232.408615 256.982697,232.622238 
	C257.061157,233.118164 257.139587,233.614105 257.218018,234.110031 
	C264.779480,235.394043 272.121002,233.465820 279.039612,230.703018 
	C300.611084,222.088913 314.447418,206.599670 318.776245,183.408936 
	C321.983429,184.405075 324.663208,185.237396 328.233154,186.346176 
	C326.169647,181.029892 315.697754,183.146194 320.176392,174.546066 
	C324.317078,175.867798 328.463287,177.191299 332.609497,178.514801 
	C332.812073,177.915924 333.014679,177.317062 333.217255,176.718185 
	C330.582336,175.581421 327.983429,174.350357 325.304932,173.327866 
	C320.048004,171.321091 320.029663,171.369125 319.886902,167.679245 
	C326.673004,169.932678 333.265228,172.121719 339.857452,174.310776 
	C340.069122,173.690491 340.280762,173.070190 340.492401,172.449905 
	C337.548004,171.253876 334.701904,169.557312 331.640686,168.956284 
	C322.696991,167.200317 316.856201,162.997604 316.637939,153.025665 
	C316.589783,150.825729 315.259277,148.653854 314.407471,146.138901 
	C321.028381,146.902908 327.135559,146.713684 331.002869,140.296204 
	C324.851868,143.921173 318.451019,146.608582 312.353607,141.271301 
	C310.287750,139.462997 310.133667,135.470627 309.105927,132.476334 
	C309.534241,132.166382 309.962524,131.856430 310.390839,131.546478 
	C314.783630,135.138199 318.544189,134.289688 321.742401,130.119934 
	C322.388275,130.869980 322.775818,131.404449 323.249573,131.846497 
	C323.724915,132.290024 324.286285,132.641403 324.603394,134.115204 
	C321.059448,134.750290 317.515533,135.385391 313.598541,136.087341 
	C315.586761,140.841370 318.509674,142.216324 322.304565,141.224167 
	C327.335541,139.908844 325.073090,136.129776 325.569336,133.319870 
	C330.351288,133.368103 330.835114,133.062790 331.412415,130.350388 
	C329.264893,130.103317 327.037292,129.847061 324.809723,129.590790 
	C325.231842,126.514420 324.568542,122.252800 326.330353,120.639351 
	C328.975861,118.216675 331.955933,121.114883 333.236694,123.878975 
	C335.794464,129.399185 337.885529,135.135620 339.541748,141.139999 
	C334.032593,146.932266 332.046173,152.374939 335.472717,156.425125 
	C340.070557,161.859833 345.785614,166.349335 351.524994,171.809555 
	C358.696381,195.242874 347.415680,225.160706 327.577667,235.756729 
	C323.845764,228.989655 320.114929,222.224548 316.384125,215.459442 
	C315.723938,215.811157 315.063782,216.162872 314.403595,216.514587 
	C316.319000,220.343811 318.234375,224.173035 319.775482,228.571457 
	C316.937469,233.917343 313.424744,239.025940 311.439178,244.671631 
	C309.163574,251.141907 311.314453,255.755859 317.044586,258.925842 
	C321.819122,261.567169 325.760315,264.753540 328.252594,269.739197 
	C330.100891,273.436554 333.230560,274.917999 337.767212,274.278381 
	C339.858856,288.934204 341.950500,303.590057 344.042145,318.245911 
	C344.929718,317.083710 345.172852,315.806152 345.165039,314.530090 
	C345.037506,293.713379 341.254883,273.521942 334.583466,253.851608 
	C332.936981,248.997055 328.892914,243.855057 329.718536,239.571335 
	C330.548798,235.263397 335.997711,231.786774 339.555878,228.073486 
	C356.107605,210.800247 360.479889,190.477005 353.212097,168.101898 
	C348.246826,152.815430 342.154327,137.832870 335.540771,123.177010 
	C333.155273,117.890686 328.413513,113.064537 323.600922,109.638130 
	C318.280609,105.850243 312.011200,101.691444 304.738403,105.231979 
	C301.724213,106.699348 299.181763,109.135696 295.502502,111.798988 
	C294.998596,109.710197 294.059021,107.729477 294.131073,105.786240 
	C294.462006,96.854424 293.410492,88.190735 290.126526,79.833801 
	C287.140533,72.235191 282.397522,71.126953 276.585449,76.948860 
	C273.297363,80.242508 270.280396,83.821190 267.295929,87.400444 
	C261.265076,94.633194 253.714249,97.979904 244.202484,98.172806 
	C230.975372,98.441071 218.155533,101.249054 205.995743,106.671074 
	C199.198105,109.702126 192.701035,109.532860 185.883850,106.088921 
	C179.242828,102.733971 172.230865,100.016273 165.187500,97.580467 
	C157.193970,94.816055 152.254807,98.242447 152.138321,106.596870 
	C151.996811,116.745949 152.425079,126.902023 152.534317,137.055847 
	C152.632370,146.169495 153.162369,155.318954 152.567703,164.391388 
	C151.227936,184.830917 154.075989,203.625259 170.985764,217.762344 
	C154.235046,250.256638 145.392426,284.461121 146.186310,320.938354 
	C147.971832,315.458313 149.625259,309.745605 149.465759,304.083923 
	C149.012512,287.996857 153.019989,272.820923 158.468277,257.848633 
M130.051224,362.573395 
	C128.064636,358.358917 125.607384,354.454803 120.363213,354.354767 
	C115.002075,354.252441 111.832962,357.828369 109.836769,362.269135 
	C107.804245,366.790649 105.885544,371.433899 104.605034,376.208374 
	C101.819115,386.595978 101.048088,397.173492 102.916763,407.861938 
	C103.519394,411.308838 105.245079,413.380371 108.921997,413.113220 
	C112.582649,412.847198 114.131889,410.720032 113.966576,407.082001 
	C113.845795,404.423950 113.643784,401.688110 114.142067,399.115570 
	C114.418869,397.686493 115.813019,395.805115 117.123314,395.358124 
	C123.556396,393.163727 126.930878,395.795410 126.722031,402.456909 
	C126.675072,403.954834 126.230194,405.545502 126.598839,406.925018 
	C127.077850,408.717621 128.187012,410.341827 129.024948,412.038513 
	C130.546661,410.602112 133.256470,409.278717 133.405518,407.711761 
	C134.827026,392.767487 135.514511,377.804077 130.051224,362.573395 
M382.461121,380.617584 
	C381.569641,380.900360 380.678131,381.183136 379.628662,381.516022 
	C379.475067,380.590820 379.263000,379.943970 379.277008,379.302032 
	C379.447754,371.479797 379.782898,363.658417 379.791992,355.836487 
	C379.796600,351.891449 377.978088,348.893890 373.507080,349.148163 
	C369.417542,349.380707 367.898346,352.138916 367.930145,356.013550 
	C367.987549,363.006897 367.754028,370.010071 368.045410,376.992310 
	C368.482422,387.463867 369.257538,397.921570 369.910919,408.383759 
	C370.101562,411.436493 371.385925,413.574738 374.821533,413.323334 
	C378.073792,413.085358 377.997498,410.620605 378.098083,408.187286 
	C378.359375,401.866089 378.685760,395.545868 379.114044,389.233948 
	C379.355560,385.674133 381.658386,383.863373 385.007935,383.603577 
	C388.376434,383.342316 389.947296,385.661926 390.042755,388.563538 
	C390.243866,394.675629 390.196594,400.806610 389.952942,406.917938 
	C389.837708,409.807922 389.602905,412.492859 393.349945,412.804932 
	C396.534485,413.070190 399.071777,411.792419 399.345306,408.274506 
	C399.769287,402.822571 400.453339,397.300079 400.008545,391.891266 
	C399.218384,382.282990 392.765717,378.066254 382.461121,380.617584 
M313.244049,305.445953 
	C315.590729,298.977386 315.701355,292.412659 313.779419,285.862213 
	C312.511993,281.542480 309.821472,278.404572 304.980530,278.358734 
	C299.844177,278.310089 294.703033,278.672668 289.565338,278.888702 
	C283.503357,279.143555 279.945953,283.925934 281.511414,289.866150 
	C282.015015,291.776978 282.821045,293.634247 283.690796,295.417450 
	C286.299042,300.765076 288.653259,306.290192 291.840607,311.276917 
	C293.223969,313.441315 296.285156,315.518860 298.787354,315.794922 
	C305.862488,316.575500 310.115295,312.177399 313.244049,305.445953 
M329.383301,402.518585 
	C329.187683,403.326447 329.233643,404.339020 328.753387,404.905640 
	C326.957306,407.024933 324.988922,408.998260 323.085175,411.026367 
	C321.998413,408.803650 320.035767,406.603699 319.977325,404.354279 
	C319.731934,394.904724 319.920410,385.434418 320.334015,375.988556 
	C320.389038,374.732056 322.446350,373.081299 323.927948,372.481293 
	C326.188507,371.565796 328.755737,371.407623 331.192749,370.927917 
	C331.199097,370.237335 331.205475,369.546783 331.211853,368.856232 
	C327.870941,368.134796 324.530060,367.413361 320.957428,366.641876 
	C321.291534,362.790741 321.626862,359.021118 321.943268,355.249878 
	C322.205841,352.119843 320.613098,350.695679 317.611389,350.446808 
	C312.930542,350.058746 312.763123,353.389160 312.477081,356.600006 
	C311.996124,361.999115 312.780640,368.084625 305.218231,369.516602 
	C305.090149,369.540833 305.065308,370.110596 304.860931,370.992859 
	C306.813599,371.794373 308.846619,372.628876 310.915314,373.477997 
	C310.915314,383.998566 310.303253,394.333252 311.091003,404.560150 
	C311.847778,414.384705 319.870087,418.223358 328.904022,414.050659 
	C333.496246,411.929565 336.048370,408.151276 337.089142,403.400543 
	C337.813110,400.095886 340.385406,395.477631 335.176300,394.176666 
	C329.022430,392.639709 330.323700,398.309174 329.383301,402.518585 
M184.913300,379.329926 
	C184.778214,382.488556 184.503708,385.648773 184.539627,388.805450 
	C184.598267,393.955902 184.590363,399.131622 185.115112,404.244904 
	C185.585541,408.828644 187.101349,413.306641 192.148468,414.775787 
	C197.353638,416.290894 202.852936,415.965546 206.466553,411.656708 
	C209.096436,408.520752 210.608627,404.266388 211.933990,400.282745 
	C212.782379,397.732788 213.140259,394.294067 208.786713,393.930573 
	C204.843704,393.601349 204.434784,396.367920 203.946518,399.412354 
	C203.455734,402.472473 202.600433,405.555176 201.335770,408.372498 
	C200.786041,409.597168 198.757278,410.924347 197.504684,410.829285 
	C196.465866,410.750458 194.971710,408.768127 194.722015,407.433929 
	C192.561157,395.888306 193.507050,384.372711 194.978912,373.040863 
	C198.807190,372.276733 202.075104,371.624451 205.343033,370.972168 
	C205.374237,370.274658 205.405441,369.577118 205.436646,368.879578 
	C201.985565,368.121490 198.534485,367.363373 195.216049,366.634399 
	C195.519028,362.565277 195.765305,358.757294 196.096710,354.956757 
	C196.391129,351.580475 194.332657,350.506317 191.546295,350.446686 
	C188.975815,350.391693 187.133484,351.325348 186.946808,354.431946 
	C186.698746,358.559753 186.108749,362.666992 185.688141,366.574463 
	C183.296799,367.629089 181.124268,368.587219 177.652298,370.118439 
	C180.897034,371.628265 182.862671,372.542908 184.935883,373.507599 
	C184.935883,375.117920 184.935883,376.773987 184.913300,379.329926 
M162.971252,382.707672 
	C162.566208,389.013916 161.990448,395.315613 161.822601,401.628174 
	C161.727631,405.199310 161.245758,407.986542 156.886200,408.067413 
	C152.341827,408.151733 150.707718,405.593536 150.806870,401.420288 
	C150.945190,395.599304 150.972549,389.774109 151.217789,383.957855 
	C151.380081,380.108826 149.760239,378.022064 145.931641,377.532104 
	C142.192276,377.053619 139.685974,378.992920 139.737259,382.338501 
	C139.852890,389.882690 139.724792,397.668945 141.562424,404.881134 
	C143.387146,412.042633 150.567093,414.445587 157.752701,412.033478 
	C158.994568,411.616608 160.226807,411.171112 161.463501,410.738861 
	C163.419495,412.390411 166.175919,414.262787 167.532562,413.532990 
	C170.009323,412.200684 173.059204,409.517578 173.392120,407.062042 
	C174.458145,399.199066 174.566101,391.184631 174.671982,383.223724 
	C174.714020,380.062775 173.176254,377.297882 169.447876,377.026031 
	C166.009964,376.775330 163.689896,378.300476 162.971252,382.707672 
M252.793396,361.520233 
	C251.660400,368.202698 250.527390,374.885162 249.353668,381.807831 
	C248.221268,382.251740 246.656586,382.865112 244.268158,383.801422 
	C246.694962,384.935028 248.275955,385.673523 249.851028,386.409271 
	C250.212372,392.104584 250.433578,397.753235 250.966431,403.372345 
	C251.483948,408.829437 251.223999,414.560883 255.882568,420.655396 
	C257.194641,417.016754 258.498932,414.625122 258.876282,412.095276 
	C259.635071,407.008148 260.243866,401.846893 260.261719,396.713959 
	C260.284698,390.093018 261.319519,384.781799 269.615631,384.905853 
	C269.925171,384.910492 270.244324,384.271362 270.822723,383.647980 
	C270.039429,383.129547 269.465485,382.513031 268.776398,382.329834 
	C260.865631,380.226440 260.858429,380.243835 261.385010,372.022705 
	C261.459473,370.860840 261.738617,369.686829 261.637756,368.543640 
	C261.297394,364.685760 263.324829,363.354523 266.835297,362.843353 
	C269.641479,362.434723 272.345947,361.327515 276.101593,360.238708 
	C267.465363,354.417999 258.063599,355.074738 252.793396,361.520233 
M300.821289,379.375427 
	C300.729736,378.550476 300.693878,377.714783 300.537781,376.902252 
	C299.276642,370.337616 295.863403,367.077209 289.668671,366.484589 
	C284.514191,365.991455 280.145081,368.916534 278.324768,374.995148 
	C275.155182,385.579468 274.543518,396.269348 279.165405,406.669006 
	C281.959961,412.956970 286.655823,415.624023 291.540985,414.132690 
	C296.795288,412.528656 302.022034,404.479279 301.080780,399.199890 
	C300.925049,398.326416 299.956696,397.597839 298.700714,395.912384 
	C297.444946,399.900208 296.980225,403.091980 295.444305,405.637390 
	C294.454742,407.277405 291.886810,408.813507 290.037018,408.800995 
	C288.704163,408.791992 286.402222,406.249695 286.248352,404.670197 
	C285.757050,399.626709 286.066071,394.505249 286.066071,389.470001 
	C291.959900,387.636047 299.597443,388.956482 300.821289,379.375427 
M341.316742,382.789093 
	C341.120056,390.053894 341.786896,397.333862 346.237762,403.217834 
	C348.281097,405.919037 352.127838,408.313446 355.430328,408.742828 
	C359.764191,409.306274 362.403839,405.459717 363.869415,401.528961 
	C364.588837,399.599335 364.757446,397.464325 365.155548,395.519073 
	C360.159332,393.256104 359.830048,396.325714 359.005096,399.463470 
	C358.562866,401.145599 356.943298,402.518188 355.855042,404.030457 
	C354.665833,402.645386 352.493866,401.292450 352.447357,399.870026 
	C352.151489,390.822632 352.165161,381.753662 352.519379,372.709137 
	C352.571045,371.390686 354.986115,370.164764 356.307587,368.896057 
	C357.547913,370.413452 359.551483,371.792053 359.858276,373.479218 
	C360.381134,376.354492 359.592133,379.445129 359.850983,382.401794 
	C359.972290,383.787476 361.250946,385.071808 362.005096,386.402069 
	C363.255432,385.177612 365.564453,383.948212 365.558777,382.729584 
	C365.541229,378.979523 365.002319,375.130829 363.980865,371.513977 
	C362.878296,367.609955 360.072021,364.861237 355.814941,364.424164 
	C351.289734,363.959564 347.337524,365.742462 345.351501,369.735229 
	C343.471771,373.514435 342.666809,377.828186 341.316742,382.789093 
M228.408875,371.838318 
	C222.352692,371.552490 218.806564,374.824982 216.857697,380.164337 
	C214.278397,387.230835 214.767548,394.244568 217.961029,400.965271 
	C222.163864,409.810120 231.709564,410.638031 237.372299,402.591522 
	C242.078659,395.903931 242.873978,388.477081 240.139481,380.782623 
	C238.331390,375.694885 234.854584,372.442719 228.408875,371.838318 
M243.409317,284.360565 
	C238.463318,280.798767 234.483826,281.589935 233.978928,286.263763 
	C233.548950,290.244080 236.067169,292.691956 239.370087,292.722260 
	C244.296005,292.767456 244.186279,288.730743 243.409317,284.360565 
M196.179749,197.945801 
	C197.443542,196.763062 198.707321,195.580307 199.971115,194.397568 
	C199.581177,193.965942 199.191238,193.534317 198.801285,193.102676 
	C196.478485,194.802322 194.155685,196.501953 191.832886,198.201599 
	C192.108353,198.648788 192.383835,199.095978 192.659302,199.543167 
	C193.583542,199.173889 194.507782,198.804596 196.179749,197.945801 
M210.673264,185.584061 
	C210.825531,186.212875 210.977798,186.841705 211.130066,187.470520 
	C212.265747,186.716599 213.401428,185.962677 214.537125,185.208755 
	C214.347565,184.865875 214.158005,184.522995 213.968445,184.180115 
	C213.168335,184.427521 212.368240,184.674942 210.673264,185.584061 
M201.351151,194.153305 
	C201.681564,193.425705 202.011978,192.698090 202.342392,191.970490 
	C201.809174,191.940887 200.857651,191.768005 200.810730,191.904984 
	C200.508896,192.786072 200.405090,193.734985 201.351151,194.153305 
M202.767532,190.587616 
	C203.056641,191.200058 203.345749,191.812515 203.634872,192.424973 
	C204.317734,191.678909 205.000595,190.932846 205.683441,190.186783 
	C205.033829,190.084320 204.384232,189.981873 202.767532,190.587616 
z"/>
<path fill="#3C2C5A" opacity="1.000000" stroke="none" 
	d="
M162.555634,204.163940 
	C171.213013,218.441635 185.140915,224.385925 200.457397,228.133713 
	C202.721664,228.687759 204.987610,229.234879 207.097290,230.508835 
	C200.944504,231.997986 195.451874,229.487289 189.194580,227.606598 
	C183.504257,224.912537 178.436157,222.517899 172.990707,219.944977 
	C166.498169,231.802963 161.303040,244.434082 157.566284,257.679138 
	C153.019989,272.820923 149.012512,287.996857 149.465759,304.083923 
	C149.625259,309.745605 147.971832,315.458313 146.186310,320.938354 
	C145.392426,284.461121 154.235046,250.256638 170.985764,217.762344 
	C154.075989,203.625259 151.227936,184.830917 152.567703,164.391388 
	C153.162369,155.318954 152.632370,146.169495 152.534317,137.055847 
	C152.425079,126.902023 151.996811,116.745949 152.138321,106.596870 
	C152.254807,98.242447 157.193970,94.816055 165.187500,97.580467 
	C172.230865,100.016273 179.242828,102.733971 185.883850,106.088921 
	C192.701035,109.532860 199.198105,109.702126 205.995743,106.671074 
	C218.155533,101.249054 230.975372,98.441071 244.202484,98.172806 
	C253.714249,97.979904 261.265076,94.633194 267.295929,87.400444 
	C270.280396,83.821190 273.297363,80.242508 276.585449,76.948860 
	C282.397522,71.126953 287.140533,72.235191 290.126526,79.833801 
	C293.410492,88.190735 294.462006,96.854424 294.131073,105.786240 
	C294.059021,107.729477 294.998596,109.710197 295.502502,111.798988 
	C299.181763,109.135696 301.724213,106.699348 304.738403,105.231979 
	C312.011200,101.691444 318.280609,105.850243 323.600922,109.638130 
	C328.413513,113.064537 333.155273,117.890686 335.540771,123.177010 
	C342.154327,137.832870 348.246826,152.815430 353.212097,168.101898 
	C360.479889,190.477005 356.107605,210.800247 339.555878,228.073486 
	C335.997711,231.786774 330.548798,235.263397 329.718536,239.571335 
	C328.892914,243.855057 332.936981,248.997055 334.583466,253.851608 
	C341.254883,273.521942 345.037506,293.713379 345.165039,314.530090 
	C345.172852,315.806152 344.929718,317.083710 344.042145,318.245911 
	C341.950500,303.590057 339.858856,288.934204 337.533630,273.548828 
	C333.702118,257.069427 328.155487,242.065338 320.149780,228.002258 
	C318.234375,224.173035 316.319000,220.343811 314.403595,216.514587 
	C315.063782,216.162872 315.723938,215.811157 316.384125,215.459442 
	C320.114929,222.224548 323.845764,228.989655 327.577667,235.756729 
	C347.415680,225.160706 358.696381,195.242874 351.362152,171.103973 
	C347.522644,160.526505 343.845978,150.654633 340.169312,140.782761 
	C337.885529,135.135620 335.794464,129.399185 333.236694,123.878975 
	C331.955933,121.114883 328.975861,118.216675 326.330353,120.639351 
	C324.568542,122.252800 325.231842,126.514420 324.809723,129.590790 
	C327.037292,129.847061 329.264893,130.103317 331.412415,130.350388 
	C330.835114,133.062790 330.351288,133.368103 325.142090,133.217468 
	C324.714844,133.115082 324.809937,133.033188 324.809937,133.033188 
	C324.286285,132.641403 323.724915,132.290024 323.249573,131.846497 
	C322.775818,131.404449 322.388275,130.869980 321.742401,130.119934 
	C318.544189,134.289688 314.783630,135.138199 310.390839,131.546478 
	C309.962524,131.856430 309.534241,132.166382 309.105927,132.476334 
	C310.133667,135.470627 310.287750,139.462997 312.353607,141.271301 
	C318.451019,146.608582 324.851868,143.921173 331.002869,140.296204 
	C327.135559,146.713684 321.028381,146.902908 314.407471,146.138901 
	C315.259277,148.653854 316.589783,150.825729 316.637939,153.025665 
	C316.856201,162.997604 322.696991,167.200317 331.640686,168.956284 
	C334.701904,169.557312 337.548004,171.253876 340.492401,172.449905 
	C340.280762,173.070190 340.069122,173.690491 339.857452,174.310776 
	C333.265228,172.121719 326.673004,169.932678 319.886902,167.679245 
	C320.029663,171.369125 320.048004,171.321091 325.304932,173.327866 
	C327.983429,174.350357 330.582336,175.581421 333.217255,176.718185 
	C333.014679,177.317062 332.812073,177.915924 332.609497,178.514801 
	C328.463287,177.191299 324.317078,175.867798 320.176392,174.546066 
	C315.697754,183.146194 326.169647,181.029892 328.233154,186.346176 
	C324.663208,185.237396 321.983429,184.405075 318.776245,183.408936 
	C314.447418,206.599670 300.611084,222.088913 279.039612,230.703018 
	C272.121002,233.465820 264.779480,235.394043 257.218018,234.110031 
	C257.139587,233.614105 257.061157,233.118164 256.982697,232.622238 
	C258.100586,232.408615 259.212006,232.053528 260.337311,232.002136 
	C286.617004,230.802094 309.356171,211.929642 315.505829,186.333618 
	C316.236786,183.291107 316.078064,181.400726 312.684631,180.242279 
	C304.041595,177.291748 295.514709,174.001923 286.889465,170.996872 
	C285.662048,170.569229 283.829803,170.450073 282.811768,171.068161 
	C271.602356,177.873734 266.857239,177.581696 257.292816,168.853241 
	C256.776215,170.318054 256.383148,171.647354 255.847565,172.916504 
	C252.221375,181.508972 245.025543,184.851440 235.999298,182.762253 
	C233.803345,182.253998 230.574402,182.670959 228.904419,184.012207 
	C219.316391,191.712708 210.048676,199.812485 200.689301,207.796738 
	C199.360840,208.930023 198.125137,210.172012 196.846512,211.363724 
	C196.457840,211.057449 196.069168,210.751175 195.680496,210.444901 
	C196.444595,209.246887 196.980148,207.786118 198.008377,206.891815 
	C207.540314,198.601257 217.185944,190.441376 226.708481,182.140213 
	C227.755875,181.227173 228.238861,179.666702 228.491455,178.185089 
	C226.839554,174.078476 225.661499,178.533844 224.494476,177.955978 
	C223.631744,177.575409 222.646317,176.705215 221.924271,176.886124 
	C205.280792,181.056290 189.079208,186.327744 174.856049,196.369827 
	C173.786652,197.124863 172.539185,197.627670 170.962173,197.475510 
	C181.544678,187.408829 194.970795,182.657898 207.766449,177.873718 
	C202.743820,175.538269 196.711349,173.916183 192.255081,170.333511 
	C187.658417,166.638000 184.595688,161.034531 180.420776,155.702469 
	C173.518372,159.984619 168.390396,167.257401 162.681976,174.835907 
	C161.275925,176.825607 160.041168,178.227982 159.313126,179.856857 
	C158.087448,182.599136 155.848526,185.793854 156.415894,188.247986 
	C157.684082,193.733261 160.418472,198.879562 162.555634,204.163940 
M279.238892,160.965027 
	C273.437744,158.085785 267.636566,155.206558 262.565735,152.689789 
	C261.259369,155.492569 259.522095,159.219772 257.606476,163.329681 
	C262.480774,173.655899 272.645538,176.650925 280.417236,169.318863 
	C276.767029,168.334915 273.239105,167.383911 269.711151,166.432922 
	C269.841400,166.004486 269.971619,165.576050 270.101837,165.147598 
	C272.055878,164.899216 274.062988,164.847290 275.946472,164.338074 
	C277.362305,163.955292 278.619354,162.985382 280.609253,162.676666 
	C292.604919,164.976639 304.600616,167.276611 316.596283,169.576584 
	C316.048950,167.863281 314.817078,166.203964 313.358551,165.972443 
	C302.257416,164.210098 291.112000,162.726746 279.238892,160.965027 
M164.690689,167.925491 
	C169.825119,162.407059 174.959549,156.888611 180.806015,150.604904 
	C178.706238,128.673828 198.869690,114.769936 215.898865,118.657471 
	C224.640823,120.653145 232.056503,119.110329 239.994370,117.141518 
	C242.409698,116.542442 244.901474,116.245483 247.363449,115.841850 
	C251.937057,115.092010 257.702789,115.861298 260.866760,113.347809 
	C270.230865,105.908920 279.893372,103.802750 291.392242,108.149101 
	C292.548889,97.527061 290.958588,87.830681 286.784210,78.589836 
	C285.052826,74.757111 282.086914,75.177956 279.547546,77.740997 
	C276.270996,81.048073 273.152466,84.540939 270.240875,88.174149 
	C264.539124,95.288986 257.508942,99.880630 248.204468,100.218872 
	C232.757599,100.780403 217.863327,103.617165 203.675613,109.999290 
	C197.830902,112.628448 192.064529,111.275536 186.307449,108.814262 
	C178.544373,105.495377 170.686798,102.311241 162.655853,99.736504 
	C157.599030,98.115288 155.056915,100.259773 154.858871,105.649994 
	C154.565674,113.630745 154.533478,121.629776 154.678589,129.615784 
	C154.868652,140.076447 155.339615,150.531982 155.331329,161.721466 
	C155.331329,167.860397 155.331329,173.999329 155.331329,181.103653 
	C158.610229,176.291946 161.349228,172.272507 164.690689,167.925491 
M246.310516,153.218109 
	C251.061157,151.624710 255.811798,150.031296 259.704437,148.725677 
	C258.101959,144.055237 255.800140,138.739700 254.505356,133.189240 
	C253.155090,127.400909 252.542694,126.223419 246.664017,127.155807 
	C243.404984,127.672691 240.328369,129.339767 237.075302,130.522659 
	C245.566360,147.843353 243.546661,158.565582 230.230682,171.111130 
	C229.406982,171.887161 229.291519,173.414917 228.960602,174.291000 
	C232.165741,174.017609 234.637131,173.806793 237.108536,173.595993 
	C237.155762,174.072205 237.202988,174.548431 237.250198,175.024643 
	C238.787048,174.392441 240.323898,173.760239 241.860733,173.128021 
	C242.144119,173.529419 242.427521,173.930817 242.710907,174.332230 
	C240.512833,176.097366 238.314758,177.862518 235.980057,179.737381 
	C245.387543,182.888031 253.114792,177.896912 254.707123,167.982407 
	C255.221191,164.781616 254.917130,162.311249 251.018387,161.054062 
	C248.003326,160.081802 244.638245,158.418732 246.310516,153.218109 
M302.590424,160.970169 
	C307.010040,161.856598 311.429657,162.743042 317.249329,163.910294 
	C314.665741,155.892899 312.425720,148.941620 310.367340,142.554077 
	C305.615173,148.577347 301.065857,154.343552 296.754425,159.808228 
	C297.903961,160.048203 299.843231,160.453018 302.590424,160.970169 
M238.640594,120.057236 
	C235.542404,120.887383 232.444229,121.717522 228.796463,122.694923 
	C231.532791,125.190208 233.588074,127.064423 235.643341,128.938644 
	C235.605804,128.456635 235.568268,127.974617 235.530731,127.492607 
	C241.854736,126.274788 248.178726,125.056976 255.310623,123.683578 
	C255.851334,122.414429 256.916016,119.915329 258.369568,116.503548 
	C251.489883,117.753410 245.476151,118.845947 238.640594,120.057236 
M302.868530,118.530815 
	C301.451691,125.221779 303.789062,128.799377 309.643707,128.460693 
	C309.591644,120.459610 313.705536,114.870514 320.855652,111.061852 
	C313.452820,108.164642 307.630096,110.498009 302.868530,118.530815 
M320.577301,125.070641 
	C321.434631,120.697655 323.399353,117.256676 328.467804,116.029030 
	C326.511932,114.739815 324.570038,113.217949 322.798767,113.395721 
	C317.448792,113.932648 311.486511,122.024673 312.231018,127.410202 
	C312.404846,128.667358 313.507568,130.545166 314.483154,130.757416 
	C315.773041,131.038071 317.612518,130.274094 318.736755,129.366074 
	C319.636871,128.639038 319.822418,127.027275 320.577301,125.070641 
M281.518372,166.151047 
	C293.159943,170.381729 304.801483,174.612396 316.755066,178.956467 
	C316.755066,176.773682 316.755066,174.992050 316.755066,172.043716 
	C305.328949,170.033829 293.819611,168.009308 281.518372,166.151047 
M254.106323,152.300079 
	C251.977692,153.156540 249.849060,154.012985 247.720428,154.869446 
	C247.731659,155.492401 247.742905,156.115356 247.754135,156.738312 
	C250.353973,157.747025 253.187729,159.886200 255.480682,159.411758 
	C257.362396,159.022415 258.601074,155.525284 261.003143,152.183853 
	C257.751953,152.183853 256.344147,152.183853 254.106323,152.300079 
M299.088654,113.872993 
	C299.088654,115.274872 299.088654,116.676758 299.088654,117.588280 
	C303.229370,113.912376 307.348175,110.255936 311.063568,106.957626 
	C306.540375,105.964226 302.756348,107.763428 299.088654,113.872993 
M232.393341,178.216202 
	C232.521225,177.873489 232.649109,177.530762 232.776993,177.188034 
	C232.369461,177.156662 231.961929,177.125290 231.554398,177.093918 
	C231.534729,177.581131 231.515060,178.068359 232.393341,178.216202 
z"/>
<path fill="#392A58" opacity="1.000000" stroke="none" 
	d="
M130.184845,362.934143 
	C135.514511,377.804077 134.827026,392.767487 133.405518,407.711761 
	C133.256470,409.278717 130.546661,410.602112 129.024948,412.038513 
	C128.187012,410.341827 127.077850,408.717621 126.598839,406.925018 
	C126.230194,405.545502 126.675072,403.954834 126.722031,402.456909 
	C126.930878,395.795410 123.556396,393.163727 117.123314,395.358124 
	C115.813019,395.805115 114.418869,397.686493 114.142067,399.115570 
	C113.643784,401.688110 113.845795,404.423950 113.966576,407.082001 
	C114.131889,410.720032 112.582649,412.847198 108.921997,413.113220 
	C105.245079,413.380371 103.519394,411.308838 102.916763,407.861938 
	C101.048088,397.173492 101.819115,386.595978 104.605034,376.208374 
	C105.885544,371.433899 107.804245,366.790649 109.836769,362.269135 
	C111.832962,357.828369 115.002075,354.252441 120.363213,354.354767 
	C125.607384,354.454803 128.064636,358.358917 130.184845,362.934143 
M120.516617,390.664276 
	C122.629608,390.664276 124.742592,390.664276 127.908005,390.664276 
	C127.072624,382.306183 126.479782,374.563080 125.373169,366.894104 
	C125.162254,365.432434 123.095879,363.634094 121.549301,363.206116 
	C120.682236,362.966156 118.296715,365.043518 118.015846,366.376190 
	C116.363846,374.214478 115.130005,382.140900 113.642899,390.683105 
	C116.664253,390.683105 118.117371,390.683105 120.516617,390.664276 
z"/>
<path fill="#392A58" opacity="1.000000" stroke="none" 
	d="
M382.858368,380.411469 
	C392.765717,378.066254 399.218384,382.282990 400.008545,391.891266 
	C400.453339,397.300079 399.769287,402.822571 399.345306,408.274506 
	C399.071777,411.792419 396.534485,413.070190 393.349945,412.804932 
	C389.602905,412.492859 389.837708,409.807922 389.952942,406.917938 
	C390.196594,400.806610 390.243866,394.675629 390.042755,388.563538 
	C389.947296,385.661926 388.376434,383.342316 385.007935,383.603577 
	C381.658386,383.863373 379.355560,385.674133 379.114044,389.233948 
	C378.685760,395.545868 378.359375,401.866089 378.098083,408.187286 
	C377.997498,410.620605 378.073792,413.085358 374.821533,413.323334 
	C371.385925,413.574738 370.101562,411.436493 369.910919,408.383759 
	C369.257538,397.921570 368.482422,387.463867 368.045410,376.992310 
	C367.754028,370.010071 367.987549,363.006897 367.930145,356.013550 
	C367.898346,352.138916 369.417542,349.380707 373.507080,349.148163 
	C377.978088,348.893890 379.796600,351.891449 379.791992,355.836487 
	C379.782898,363.658417 379.447754,371.479797 379.277008,379.302032 
	C379.263000,379.943970 379.475067,380.590820 379.628662,381.516022 
	C380.678131,381.183136 381.569641,380.900360 382.858368,380.411469 
z"/>
<path fill="#8FDBF5" opacity="1.000000" stroke="none" 
	d="
M313.098511,305.808350 
	C310.115295,312.177399 305.862488,316.575500 298.787354,315.794922 
	C296.285156,315.518860 293.223969,313.441315 291.840607,311.276917 
	C288.653259,306.290192 286.299042,300.765076 283.690796,295.417450 
	C282.821045,293.634247 282.015015,291.776978 281.511414,289.866150 
	C279.945953,283.925934 283.503357,279.143555 289.565338,278.888702 
	C294.703033,278.672668 299.844177,278.310089 304.980530,278.358734 
	C309.821472,278.404572 312.511993,281.542480 313.779419,285.862213 
	C315.701355,292.412659 315.590729,298.977386 313.098511,305.808350 
z"/>
<path fill="#3B2B59" opacity="1.000000" stroke="none" 
	d="
M329.480652,402.118835 
	C330.323700,398.309174 329.022430,392.639709 335.176300,394.176666 
	C340.385406,395.477631 337.813110,400.095886 337.089142,403.400543 
	C336.048370,408.151276 333.496246,411.929565 328.904022,414.050659 
	C319.870087,418.223358 311.847778,414.384705 311.091003,404.560150 
	C310.303253,394.333252 310.915314,383.998566 310.915314,373.477997 
	C308.846619,372.628876 306.813599,371.794373 304.860931,370.992859 
	C305.065308,370.110596 305.090149,369.540833 305.218231,369.516602 
	C312.780640,368.084625 311.996124,361.999115 312.477081,356.600006 
	C312.763123,353.389160 312.930542,350.058746 317.611389,350.446808 
	C320.613098,350.695679 322.205841,352.119843 321.943268,355.249878 
	C321.626862,359.021118 321.291534,362.790741 320.957428,366.641876 
	C324.530060,367.413361 327.870941,368.134796 331.211853,368.856232 
	C331.205475,369.546783 331.199097,370.237335 331.192749,370.927917 
	C328.755737,371.407623 326.188507,371.565796 323.927948,372.481293 
	C322.446350,373.081299 320.389038,374.732056 320.334015,375.988556 
	C319.920410,385.434418 319.731934,394.904724 319.977325,404.354279 
	C320.035767,406.603699 321.998413,408.803650 323.085144,411.026367 
	C324.988922,408.998260 326.957306,407.024933 328.753387,404.905640 
	C329.233643,404.339020 329.187683,403.326447 329.480652,402.118835 
z"/>
<path fill="#3B2B59" opacity="1.000000" stroke="none" 
	d="
M184.924591,378.880005 
	C184.935883,376.773987 184.935883,375.117920 184.935883,373.507599 
	C182.862671,372.542908 180.897034,371.628265 177.652298,370.118439 
	C181.124268,368.587219 183.296799,367.629089 185.688141,366.574463 
	C186.108749,362.666992 186.698746,358.559753 186.946808,354.431946 
	C187.133484,351.325348 188.975815,350.391693 191.546295,350.446686 
	C194.332657,350.506317 196.391129,351.580475 196.096710,354.956757 
	C195.765305,358.757294 195.519028,362.565277 195.216049,366.634399 
	C198.534485,367.363373 201.985565,368.121490 205.436646,368.879578 
	C205.405441,369.577118 205.374237,370.274658 205.343033,370.972168 
	C202.075104,371.624451 198.807190,372.276733 194.978912,373.040863 
	C193.507050,384.372711 192.561157,395.888306 194.722015,407.433929 
	C194.971710,408.768127 196.465866,410.750458 197.504684,410.829285 
	C198.757278,410.924347 200.786041,409.597168 201.335770,408.372498 
	C202.600433,405.555176 203.455734,402.472473 203.946518,399.412354 
	C204.434784,396.367920 204.843704,393.601349 208.786713,393.930573 
	C213.140259,394.294067 212.782379,397.732788 211.933990,400.282745 
	C210.608627,404.266388 209.096436,408.520752 206.466553,411.656708 
	C202.852936,415.965546 197.353638,416.290894 192.148468,414.775787 
	C187.101349,413.306641 185.585541,408.828644 185.115112,404.244904 
	C184.590363,399.131622 184.598267,393.955902 184.539627,388.805450 
	C184.503708,385.648773 184.778214,382.488556 184.924591,378.880005 
z"/>
<path fill="#392A58" opacity="1.000000" stroke="none" 
	d="
M162.999207,382.290283 
	C163.689896,378.300476 166.009964,376.775330 169.447876,377.026031 
	C173.176254,377.297882 174.714020,380.062775 174.671982,383.223724 
	C174.566101,391.184631 174.458145,399.199066 173.392120,407.062042 
	C173.059204,409.517578 170.009323,412.200684 167.532562,413.532990 
	C166.175919,414.262787 163.419495,412.390411 161.463501,410.738861 
	C160.226807,411.171112 158.994568,411.616608 157.752701,412.033478 
	C150.567093,414.445587 143.387146,412.042633 141.562424,404.881134 
	C139.724792,397.668945 139.852890,389.882690 139.737259,382.338501 
	C139.685974,378.992920 142.192276,377.053619 145.931641,377.532104 
	C149.760239,378.022064 151.380081,380.108826 151.217789,383.957855 
	C150.972549,389.774109 150.945190,395.599304 150.806870,401.420288 
	C150.707718,405.593536 152.341827,408.151733 156.886200,408.067413 
	C161.245758,407.986542 161.727631,405.199310 161.822601,401.628174 
	C161.990448,395.315613 162.566208,389.013916 162.999207,382.290283 
z"/>
<path fill="#3B2C5A" opacity="1.000000" stroke="none" 
	d="
M252.918854,361.151764 
	C258.063599,355.074738 267.465363,354.417999 276.101593,360.238708 
	C272.345947,361.327515 269.641479,362.434723 266.835297,362.843353 
	C263.324829,363.354523 261.297394,364.685760 261.637756,368.543640 
	C261.738617,369.686829 261.459473,370.860840 261.385010,372.022705 
	C260.858429,380.243835 260.865631,380.226440 268.776398,382.329834 
	C269.465485,382.513031 270.039429,383.129547 270.822723,383.647980 
	C270.244324,384.271362 269.925171,384.910492 269.615631,384.905853 
	C261.319519,384.781799 260.284698,390.093018 260.261719,396.713959 
	C260.243866,401.846893 259.635071,407.008148 258.876282,412.095276 
	C258.498932,414.625122 257.194641,417.016754 255.882568,420.655396 
	C251.223999,414.560883 251.483948,408.829437 250.966431,403.372345 
	C250.433578,397.753235 250.212372,392.104584 249.851028,386.409271 
	C248.275955,385.673523 246.694962,384.935028 244.268158,383.801422 
	C246.656586,382.865112 248.221268,382.251740 249.353668,381.807831 
	C250.527390,374.885162 251.660400,368.202698 252.918854,361.151764 
z"/>
<path fill="#3D2D5B" opacity="1.000000" stroke="none" 
	d="
M300.806030,379.775696 
	C299.597443,388.956482 291.959900,387.636047 286.066071,389.470001 
	C286.066071,394.505249 285.757050,399.626709 286.248352,404.670197 
	C286.402222,406.249695 288.704163,408.791992 290.037018,408.800995 
	C291.886810,408.813507 294.454742,407.277405 295.444305,405.637390 
	C296.980225,403.091980 297.444946,399.900208 298.700714,395.912384 
	C299.956696,397.597839 300.925049,398.326416 301.080780,399.199890 
	C302.022034,404.479279 296.795288,412.528656 291.540985,414.132690 
	C286.655823,415.624023 281.959961,412.956970 279.165405,406.669006 
	C274.543518,396.269348 275.155182,385.579468 278.324768,374.995148 
	C280.145081,368.916534 284.514191,365.991455 289.668671,366.484589 
	C295.863403,367.077209 299.276642,370.337616 300.537781,376.902252 
	C300.693878,377.714783 300.729736,378.550476 300.806030,379.775696 
M295.528839,381.704620 
	C295.093445,378.758698 294.970825,375.703369 294.005157,372.942932 
	C293.760468,372.243439 289.535828,371.929260 289.342316,372.381165 
	C288.024048,375.459595 287.294342,378.790070 286.374695,382.039215 
	C288.945465,382.285339 291.514862,382.548798 294.089081,382.751038 
	C294.349396,382.771515 294.638702,382.422821 295.528839,381.704620 
z"/>
<path fill="#3D2D5B" opacity="1.000000" stroke="none" 
	d="
M341.352966,382.347961 
	C342.666809,377.828186 343.471771,373.514435 345.351501,369.735229 
	C347.337524,365.742462 351.289734,363.959564 355.814941,364.424164 
	C360.072021,364.861237 362.878296,367.609955 363.980865,371.513977 
	C365.002319,375.130829 365.541229,378.979523 365.558777,382.729584 
	C365.564453,383.948212 363.255432,385.177612 362.005096,386.402069 
	C361.250946,385.071808 359.972290,383.787476 359.850983,382.401794 
	C359.592133,379.445129 360.381134,376.354492 359.858276,373.479218 
	C359.551483,371.792053 357.547913,370.413452 356.307587,368.896057 
	C354.986115,370.164764 352.571045,371.390686 352.519379,372.709137 
	C352.165161,381.753662 352.151489,390.822632 352.447357,399.870026 
	C352.493866,401.292450 354.665833,402.645386 355.855042,404.030457 
	C356.943298,402.518188 358.562866,401.145599 359.005096,399.463470 
	C359.830048,396.325714 360.159332,393.256104 365.155548,395.519073 
	C364.757446,397.464325 364.588837,399.599335 363.869415,401.528961 
	C362.403839,405.459717 359.764191,409.306274 355.430328,408.742828 
	C352.127838,408.313446 348.281097,405.919037 346.237762,403.217834 
	C341.786896,397.333862 341.120056,390.053894 341.352966,382.347961 
z"/>
<path fill="#3B2C5A" opacity="1.000000" stroke="none" 
	d="
M228.830521,371.870728 
	C234.854584,372.442719 238.331390,375.694885 240.139481,380.782623 
	C242.873978,388.477081 242.078659,395.903931 237.372299,402.591522 
	C231.709564,410.638031 222.163864,409.810120 217.961029,400.965271 
	C214.767548,394.244568 214.278397,387.230835 216.857697,380.164337 
	C218.806564,374.824982 222.352692,371.552490 228.830521,371.870728 
M222.764008,384.385040 
	C223.028000,389.473083 223.104996,394.582642 223.685577,399.634308 
	C223.833344,400.920013 225.580063,402.021942 226.592117,403.208313 
	C227.677887,402.095673 229.542114,401.091339 229.714600,399.851593 
	C230.459442,394.497772 231.136597,389.058044 230.923248,383.685883 
	C230.840668,381.606995 228.332596,379.624390 226.929504,377.597900 
	C225.586273,379.581696 224.243042,381.565491 222.764008,384.385040 
z"/>
<path fill="#8EDAF3" opacity="1.000000" stroke="none" 
	d="
M319.962646,228.286865 
	C328.155487,242.065338 333.702118,257.069427 337.336792,273.204254 
	C333.230560,274.917999 330.100891,273.436554 328.252594,269.739197 
	C325.760315,264.753540 321.819122,261.567169 317.044586,258.925842 
	C311.314453,255.755859 309.163574,251.141907 311.439178,244.671631 
	C313.424744,239.025940 316.937469,233.917343 319.962646,228.286865 
z"/>
<path fill="#8ED9F3" opacity="1.000000" stroke="none" 
	d="
M158.017273,257.763885 
	C161.303040,244.434082 166.498169,231.802963 172.990707,219.944977 
	C178.436157,222.517899 183.504257,224.912537 188.815338,227.547791 
	C184.759567,229.127365 183.634079,232.654022 182.873062,236.541214 
	C180.760269,247.332825 175.016678,254.930817 163.865646,257.513550 
	C162.133575,257.914703 160.270676,257.751068 158.017273,257.763885 
z"/>
<path fill="#8EDAF3" opacity="1.000000" stroke="none" 
	d="
M208.832245,319.313782 
	C192.604294,314.512146 186.435913,292.744843 197.562149,279.044739 
	C199.705658,276.405396 202.606049,274.380707 205.524475,272.472290 
	C206.871872,288.352692 207.852051,303.833221 208.832245,319.313782 
z"/>
<path fill="#8EDAF3" opacity="1.000000" stroke="none" 
	d="
M339.855530,140.961380 
	C343.845978,150.654633 347.522644,160.526505 351.110168,170.821503 
	C345.785614,166.349335 340.070557,161.859833 335.472717,156.425125 
	C332.046173,152.374939 334.032593,146.932266 339.855530,140.961380 
z"/>
<path fill="#8FD6F0" opacity="1.000000" stroke="none" 
	d="
M162.888672,203.982758 
	C160.418472,198.879562 157.684082,193.733261 156.415894,188.247986 
	C155.848526,185.793854 158.087448,182.599136 159.313126,179.856857 
	C160.041168,178.227982 161.275925,176.825607 162.566254,175.159760 
	C163.582840,181.700287 164.583328,188.388916 164.923370,195.110947 
	C165.068085,197.971817 163.830902,200.902588 162.888672,203.982758 
z"/>
<path fill="#423662" opacity="1.000000" stroke="none" 
	d="
M209.022705,319.541992 
	C207.852051,303.833221 206.871872,288.352692 205.856369,272.399323 
	C208.360764,271.700409 208.287537,271.703613 208.422882,274.790314 
	C208.903687,285.755707 209.351547,296.723877 210.004669,307.679504 
	C210.211502,311.149017 211.124725,314.573212 211.440552,318.043060 
	C211.486420,318.547028 209.993851,319.191010 209.022705,319.541992 
z"/>
<path fill="#8FDBF5" opacity="1.000000" stroke="none" 
	d="
M243.599136,284.710999 
	C244.186279,288.730743 244.296005,292.767456 239.370087,292.722260 
	C236.067169,292.691956 233.548950,290.244080 233.978928,286.263763 
	C234.483826,281.589935 238.463318,280.798767 243.599136,284.710999 
z"/>
<path fill="#423662" opacity="1.000000" stroke="none" 
	d="
M324.706665,133.574188 
	C324.809937,133.033188 324.714844,133.115082 324.709045,133.082336 
	C325.073090,136.129776 327.335541,139.908844 322.304565,141.224167 
	C318.509674,142.216324 315.586761,140.841370 313.598541,136.087341 
	C317.515533,135.385391 321.059448,134.750290 324.706665,133.574188 
z"/>
<path fill="#3C2C5A" opacity="1.000000" stroke="none" 
	d="
M179.036057,208.309708 
	C183.248367,204.839691 187.460678,201.369675 191.673004,197.899658 
	C192.154922,198.476059 192.636856,199.052460 193.118774,199.628876 
	C189.114441,202.903152 185.110092,206.177429 180.465546,209.232391 
	C179.562241,208.778625 179.299149,208.544174 179.036057,208.309708 
z"/>
<path fill="#3C2C5A" opacity="1.000000" stroke="none" 
	d="
M195.805878,198.190552 
	C194.507782,198.804596 193.583542,199.173889 192.659302,199.543167 
	C192.383835,199.095978 192.108353,198.648788 191.832886,198.201599 
	C194.155685,196.501953 196.478485,194.802322 198.801285,193.102676 
	C199.191238,193.534317 199.581177,193.965942 199.971115,194.397568 
	C198.707321,195.580307 197.443542,196.763062 195.805878,198.190552 
z"/>
<path fill="#463662" opacity="1.000000" stroke="none" 
	d="
M224.047241,178.165543 
	C225.661499,178.533844 226.839554,174.078476 228.011566,178.261353 
	C226.543045,178.645752 224.914047,182.298279 224.047241,178.165543 
z"/>
<path fill="#3C2C5A" opacity="1.000000" stroke="none" 
	d="
M216.999771,181.996460 
	C218.285706,181.303024 219.571655,180.609589 220.857605,179.916168 
	C221.133362,180.361450 221.409134,180.806747 221.684906,181.252029 
	C220.403854,182.156387 219.122787,183.060745 217.430054,183.988617 
	C217.018387,184.012146 216.950989,183.917938 216.960724,183.597839 
	C216.980209,182.850662 216.989990,182.423553 216.999771,181.996460 
z"/>
<path fill="#3C2C5A" opacity="1.000000" stroke="none" 
	d="
M180.172272,209.411896 
	C179.458481,210.175476 178.397766,210.540222 177.337067,210.904968 
	C177.711838,210.136795 178.086609,209.368622 178.748718,208.455078 
	C179.299149,208.544174 179.562241,208.778625 180.172272,209.411896 
z"/>
<path fill="#3C2C5A" opacity="1.000000" stroke="none" 
	d="
M211.120697,185.253204 
	C212.368240,184.674942 213.168335,184.427521 213.968445,184.180115 
	C214.158005,184.522995 214.347565,184.865875 214.537125,185.208755 
	C213.401428,185.962677 212.265747,186.716599 211.130066,187.470520 
	C210.977798,186.841705 210.825531,186.212875 211.120697,185.253204 
z"/>
<path fill="#3C2C5A" opacity="1.000000" stroke="none" 
	d="
M200.793701,194.407471 
	C200.405090,193.734985 200.508896,192.786072 200.810730,191.904984 
	C200.857651,191.768005 201.809174,191.940887 202.342392,191.970490 
	C202.011978,192.698090 201.681564,193.425705 200.793701,194.407471 
z"/>
<path fill="#3C2C5A" opacity="1.000000" stroke="none" 
	d="
M203.251068,190.233521 
	C204.384232,189.981873 205.033829,190.084320 205.683441,190.186783 
	C205.000595,190.932846 204.317734,191.678909 203.634857,192.424957 
	C203.345749,191.812515 203.056641,191.200058 203.251068,190.233521 
z"/>
<path fill="#3C2C5A" opacity="1.000000" stroke="none" 
	d="
M217.053162,184.058456 
	C216.176376,184.349136 215.264816,184.593506 214.353241,184.837875 
	C214.559235,184.214539 214.765228,183.591202 215.524002,183.055099 
	C216.368179,183.400864 216.659592,183.659393 216.950989,183.917938 
	C216.950989,183.917938 217.018387,184.012146 217.053162,184.058456 
z"/>
<path fill="#463662" opacity="1.000000" stroke="none" 
	d="
M216.960724,183.597839 
	C216.659592,183.659393 216.368179,183.400864 215.964630,182.867401 
	C215.956635,182.256271 216.182037,182.057861 216.764252,181.996841 
	C216.989990,182.423553 216.980209,182.850662 216.960724,183.597839 
z"/>
<path fill="#FBF0EE" opacity="1.000000" stroke="none" 
	d="
M155.689758,160.989731 
	C155.339615,150.531982 154.868652,140.076447 154.678589,129.615784 
	C154.533478,121.629776 154.565674,113.630745 154.858871,105.649994 
	C155.056915,100.259773 157.599030,98.115288 162.655853,99.736504 
	C170.686798,102.311241 178.544373,105.495377 186.307449,108.814262 
	C192.064529,111.275536 197.830902,112.628448 203.675613,109.999290 
	C217.863327,103.617165 232.757599,100.780403 248.204468,100.218872 
	C257.508942,99.880630 264.539124,95.288986 270.240875,88.174149 
	C273.152466,84.540939 276.270996,81.048073 279.547546,77.740997 
	C282.086914,75.177956 285.052826,74.757111 286.784210,78.589836 
	C290.958588,87.830681 292.548889,97.527061 291.392242,108.149101 
	C279.893372,103.802750 270.230865,105.908920 260.866760,113.347809 
	C257.702789,115.861298 251.937057,115.092010 247.363449,115.841850 
	C244.901474,116.245483 242.409698,116.542442 239.994370,117.141518 
	C232.056503,119.110329 224.640823,120.653145 215.898865,118.657471 
	C198.869690,114.769936 178.706238,128.673828 180.806015,150.604904 
	C174.959549,156.888611 169.825119,162.407059 164.356659,167.673828 
	C163.200333,161.312500 162.566116,160.822937 155.689758,160.989731 
M264.812927,104.967606 
	C270.379333,101.726364 276.489441,101.507401 282.634369,102.042694 
	C286.869354,102.411606 288.453827,100.683586 288.000885,96.637383 
	C287.616791,93.206329 287.577820,89.702980 286.834991,86.353874 
	C285.803314,81.702827 282.472198,80.339890 278.721771,83.303467 
	C271.611725,88.921852 266.091949,95.824203 263.602661,105.063423 
	C263.760681,105.072227 263.918701,105.081032 264.812927,104.967606 
M160.032867,113.955238 
	C160.285614,125.248993 160.538361,136.542740 160.791092,147.836487 
	C161.617126,148.140884 162.443146,148.445297 163.269180,148.749695 
	C166.230667,145.393051 169.246521,142.082504 172.141052,138.669098 
	C176.612457,133.396133 180.812134,127.878738 185.493240,122.802673 
	C188.438202,119.609230 188.968414,117.085197 185.221176,114.660873 
	C180.668640,111.715591 175.768188,109.143303 170.722672,107.162605 
	C162.730682,104.025215 162.182251,104.539139 160.032867,113.955238 
z"/>
<path fill="#F8EEED" opacity="1.000000" stroke="none" 
	d="
M246.111298,153.575851 
	C244.638245,158.418732 248.003326,160.081802 251.018387,161.054062 
	C254.917130,162.311249 255.221191,164.781616 254.707123,167.982407 
	C253.114792,177.896912 245.387543,182.888031 235.980057,179.737381 
	C238.314758,177.862518 240.512833,176.097366 242.710907,174.332230 
	C242.427521,173.930817 242.144119,173.529419 241.860733,173.128021 
	C240.323898,173.760239 238.787048,174.392441 237.250198,175.024643 
	C237.202988,174.548431 237.155762,174.072205 237.108536,173.595993 
	C234.637131,173.806793 232.165741,174.017609 228.960602,174.291000 
	C229.291519,173.414917 229.406982,171.887161 230.230682,171.111130 
	C243.546661,158.565582 245.566360,147.843353 237.075302,130.522659 
	C240.328369,129.339767 243.404984,127.672691 246.664017,127.155807 
	C252.542694,126.223419 253.155090,127.400909 254.505356,133.189240 
	C255.800140,138.739700 258.101959,144.055237 259.704437,148.725677 
	C255.811798,150.031296 251.061157,151.624710 246.111298,153.575851 
z"/>
<path fill="#F8EEED" opacity="1.000000" stroke="none" 
	d="
M279.947083,162.276825 
	C278.619354,162.985382 277.362305,163.955292 275.946472,164.338074 
	C274.062988,164.847290 272.055878,164.899216 270.101837,165.147598 
	C269.971619,165.576050 269.841400,166.004486 269.711151,166.432922 
	C273.239105,167.383911 276.767029,168.334915 280.417236,169.318863 
	C272.645538,176.650925 262.480774,173.655899 257.606476,163.329681 
	C259.522095,159.219772 261.259369,155.492569 262.565735,152.689789 
	C267.636566,155.206558 273.437744,158.085785 279.596588,161.340714 
	C279.951874,161.903214 279.949493,162.090012 279.947083,162.276825 
z"/>
<path fill="#F6ECEB" opacity="1.000000" stroke="none" 
	d="
M302.186462,160.914001 
	C299.843231,160.453018 297.903961,160.048203 296.754425,159.808228 
	C301.065857,154.343552 305.615173,148.577347 310.367340,142.554077 
	C312.425720,148.941620 314.665741,155.892899 317.249329,163.910294 
	C311.429657,162.743042 307.010040,161.856598 302.186462,160.914001 
z"/>
<path fill="#F3E8E8" opacity="1.000000" stroke="none" 
	d="
M239.051514,119.997864 
	C245.476151,118.845947 251.489883,117.753410 258.369568,116.503548 
	C256.916016,119.915329 255.851334,122.414429 255.310623,123.683578 
	C248.178726,125.056976 241.854736,126.274788 235.530731,127.492607 
	C235.568268,127.974617 235.605804,128.456635 235.643341,128.938644 
	C233.588074,127.064423 231.532791,125.190208 228.796463,122.694923 
	C232.444229,121.717522 235.542404,120.887383 239.051514,119.997864 
z"/>
<path fill="#F5EBEA" opacity="1.000000" stroke="none" 
	d="
M302.964722,118.165833 
	C307.630096,110.498009 313.452820,108.164642 320.855652,111.061852 
	C313.705536,114.870514 309.591644,120.459610 309.643707,128.460693 
	C303.789062,128.799377 301.451691,125.221779 302.964722,118.165833 
z"/>
<path fill="#F5EBEA" opacity="1.000000" stroke="none" 
	d="
M320.451202,125.439407 
	C319.822418,127.027275 319.636871,128.639038 318.736755,129.366074 
	C317.612518,130.274094 315.773041,131.038071 314.483154,130.757416 
	C313.507568,130.545166 312.404846,128.667358 312.231018,127.410202 
	C311.486511,122.024673 317.448792,113.932648 322.798767,113.395721 
	C324.570038,113.217949 326.511932,114.739815 328.467804,116.029030 
	C323.399353,117.256676 321.434631,120.697655 320.451202,125.439407 
z"/>
<path fill="#F3E8E8" opacity="1.000000" stroke="none" 
	d="
M281.914307,166.067917 
	C293.819611,168.009308 305.328949,170.033829 316.755066,172.043716 
	C316.755066,174.992050 316.755066,176.773682 316.755066,178.956467 
	C304.801483,174.612396 293.159943,170.381729 281.914307,166.067917 
z"/>
<path fill="#8FD6F0" opacity="1.000000" stroke="none" 
	d="
M155.510529,161.355591 
	C162.566116,160.822937 163.200333,161.312500 164.055420,167.837616 
	C161.349228,172.272507 158.610229,176.291946 155.331329,181.103653 
	C155.331329,173.999329 155.331329,167.860397 155.510529,161.355591 
z"/>
<path fill="#E7DCDF" opacity="1.000000" stroke="none" 
	d="
M280.278168,162.476746 
	C279.949493,162.090012 279.951874,161.903214 279.967346,161.436462 
	C291.112000,162.726746 302.257416,164.210098 313.358551,165.972443 
	C314.817078,166.203964 316.048950,167.863281 316.596283,169.576584 
	C304.600616,167.276611 292.604919,164.976639 280.278168,162.476746 
z"/>
<path fill="#F3B6AF" opacity="1.000000" stroke="none" 
	d="
M254.521332,152.241974 
	C256.344147,152.183853 257.751953,152.183853 261.003143,152.183853 
	C258.601074,155.525284 257.362396,159.022415 255.480682,159.411758 
	C253.187729,159.886200 250.353973,157.747025 247.754135,156.738312 
	C247.742905,156.115356 247.731659,155.492401 247.720428,154.869446 
	C249.849060,154.012985 251.977692,153.156540 254.521332,152.241974 
z"/>
<path fill="#E7DCDF" opacity="1.000000" stroke="none" 
	d="
M299.209351,113.517456 
	C302.756348,107.763428 306.540375,105.964226 311.063568,106.957626 
	C307.348175,110.255936 303.229370,113.912376 299.088654,117.588280 
	C299.088654,116.676758 299.088654,115.274872 299.209351,113.517456 
z"/>
<path fill="#FFF5F2" opacity="1.000000" stroke="none" 
	d="
M231.944366,178.385895 
	C231.515060,178.068359 231.534729,177.581131 231.554398,177.093918 
	C231.961929,177.125290 232.369461,177.156662 232.777008,177.188034 
	C232.649109,177.530762 232.521225,177.873489 231.944366,178.385895 
z"/>
<path fill="#F8EEED" opacity="1.000000" stroke="none" 
	d="
M120.043549,390.673706 
	C118.117371,390.683105 116.664253,390.683105 113.642899,390.683105 
	C115.130005,382.140900 116.363846,374.214478 118.015846,366.376190 
	C118.296715,365.043518 120.682236,362.966156 121.549301,363.206116 
	C123.095879,363.634094 125.162254,365.432434 125.373169,366.894104 
	C126.479782,374.563080 127.072624,382.306183 127.908005,390.664276 
	C124.742592,390.664276 122.629608,390.664276 120.043549,390.673706 
z"/>
<path fill="#F3E8E8" opacity="1.000000" stroke="none" 
	d="
M295.221680,381.975037 
	C294.638702,382.422821 294.349396,382.771515 294.089081,382.751038 
	C291.514862,382.548798 288.945465,382.285339 286.374695,382.039215 
	C287.294342,378.790070 288.024048,375.459595 289.342316,372.381165 
	C289.535828,371.929260 293.760468,372.243439 294.005157,372.942932 
	C294.970825,375.703369 295.093445,378.758698 295.221680,381.975037 
z"/>
<path fill="#F6ECEB" opacity="1.000000" stroke="none" 
	d="
M222.831909,383.967163 
	C224.243042,381.565491 225.586273,379.581696 226.929504,377.597900 
	C228.332596,379.624390 230.840668,381.606995 230.923248,383.685883 
	C231.136597,389.058044 230.459442,394.497772 229.714600,399.851593 
	C229.542114,401.091339 227.677887,402.095673 226.592102,403.208313 
	C225.580063,402.021942 223.833344,400.920013 223.685577,399.634308 
	C223.104996,394.582642 223.028000,389.473083 222.831909,383.967163 
z"/>
<path fill="#FFC0B6" opacity="1.000000" stroke="none" 
	d="
M160.048492,113.510696 
	C162.182251,104.539139 162.730682,104.025215 170.722672,107.162605 
	C175.768188,109.143303 180.668640,111.715591 185.221176,114.660873 
	C188.968414,117.085197 188.438202,119.609230 185.493240,122.802673 
	C180.812134,127.878738 176.612457,133.396133 172.141052,138.669098 
	C169.246521,142.082504 166.230667,145.393051 163.269180,148.749695 
	C162.443146,148.445297 161.617126,148.140884 160.791092,147.836487 
	C160.538361,136.542740 160.285614,125.248993 160.048492,113.510696 
z"/>
<path fill="#FFC0B6" opacity="1.000000" stroke="none" 
	d="
M263.889008,104.904503 
	C266.091949,95.824203 271.611725,88.921852 278.721771,83.303467 
	C282.472198,80.339890 285.803314,81.702827 286.834991,86.353874 
	C287.577820,89.702980 287.616791,93.206329 288.000885,96.637383 
	C288.453827,100.683586 286.869354,102.411606 282.634369,102.042694 
	C276.489441,101.507401 270.379333,101.726364 264.399689,104.980560 
	C263.986450,104.993515 263.889008,104.904503 263.889008,104.904503 
z"/>
<path fill="#FFC0B6" opacity="1.000000" stroke="none" 
	d="
M264.031586,105.041672 
	C263.918701,105.081032 263.760681,105.072227 263.745850,104.983963 
	C263.889008,104.904503 263.986450,104.993515 264.031586,105.041672 
z"/>
</svg>